<svg width="800" height="800" viewBox="0 0 800 800" fill="none" xmlns="http://www.w3.org/2000/svg">
<path fill-rule="evenodd" clip-rule="evenodd" d="M190.729 342.273L145.161 304.301L117.568 352.59C106.055 372.737 100 395.537 100 418.743V616.667C100 635.077 114.924 650 133.333 650H166.667C185.076 650 200 635.077 200 616.667V583.333H600V616.667C600 635.077 614.923 650 633.333 650H666.667C685.077 650 700 635.077 700 616.667V418.743C700 395.537 693.943 372.737 682.433 352.59L654.839 304.3L609.27 342.273C603.28 347.267 595.73 350 587.93 350H212.068C204.27 350 196.719 347.267 190.729 342.273ZM216.667 483.333C225.871 483.333 233.333 475.87 233.333 466.667C233.333 457.463 225.871 450 216.667 450C207.462 450 200 457.463 200 466.667C200 475.87 207.462 483.333 216.667 483.333ZM583.333 483.333C592.537 483.333 600 475.87 600 466.667C600 457.463 592.537 450 583.333 450C574.13 450 566.667 457.463 566.667 466.667C566.667 475.87 574.13 483.333 583.333 483.333Z" fill="#63CECC"/>
<path d="M100 266.667L145.161 304.301M700 266.667L654.839 304.3M216.667 466.667H217M583.333 466.667H583.667M145.161 304.301L190.729 342.273C196.719 347.267 204.27 350 212.068 350H587.93C595.73 350 603.28 347.267 609.27 342.273L654.839 304.3M145.161 304.301L117.568 352.59C106.055 372.737 100 395.537 100 418.743V616.667C100 635.077 114.924 650 133.333 650H166.667C185.076 650 200 635.077 200 616.667V583.333H600V616.667C600 635.077 614.923 650 633.333 650H666.667C685.077 650 700 635.077 700 616.667V418.743C700 395.537 693.943 372.737 682.433 352.59L654.839 304.3M145.161 304.301L214.139 183.591C226.008 162.819 248.098 150 272.022 150H527.98C551.903 150 573.993 162.819 585.86 183.591L654.839 304.3M233.333 466.667C233.333 475.87 225.871 483.333 216.667 483.333C207.462 483.333 200 475.87 200 466.667C200 457.463 207.462 450 216.667 450C225.871 450 233.333 457.463 233.333 466.667ZM600 466.667C600 475.87 592.537 483.333 583.333 483.333C574.13 483.333 566.667 475.87 566.667 466.667C566.667 457.463 574.13 450 583.333 450C592.537 450 600 457.463 600 466.667Z" stroke="#212121" stroke-width="66.6667" stroke-linecap="round" stroke-linejoin="round"/>
</svg>
