<svg width="512" height="512" viewBox="0 0 512 512" fill="none" xmlns="http://www.w3.org/2000/svg">
<path d="M213.333 384H85.3333C72.5333 384 64 375.467 64 362.667C64 349.867 72.5333 341.333 85.3333 341.333H213.333C226.133 341.333 234.667 349.867 234.667 362.667C234.667 375.467 226.133 384 213.333 384Z" fill="#00355E"/>
<path d="M277.333 277.333H85.3333C72.5333 277.333 64 268.8 64 256C64 243.2 72.5333 234.667 85.3333 234.667H277.333C290.133 234.667 298.667 243.2 298.667 256C298.667 268.8 290.133 277.333 277.333 277.333Z" fill="#00355E"/>
<path d="M383.999 426.667C371.199 426.667 362.666 418.134 362.666 405.334V234.667C362.666 221.867 371.199 213.333 383.999 213.333C396.799 213.333 405.333 221.867 405.333 234.667V405.334C405.333 418.134 396.799 426.667 383.999 426.667Z" fill="#00355E"/>
<path d="M383.999 426.667C377.599 426.667 373.333 424.533 369.066 420.267L305.066 356.267C296.533 347.733 296.533 334.933 305.066 326.4C313.599 317.867 326.399 317.867 334.933 326.4L383.999 375.467L433.066 326.4C441.599 317.867 454.399 317.867 462.933 326.4C471.466 334.933 471.466 347.733 462.933 356.267L398.933 420.267C394.666 424.533 390.399 426.667 383.999 426.667Z" fill="#00355E"/>
<path d="M341.333 170.667H85.3333C72.5333 170.667 64 162.133 64 149.333C64 136.533 72.5333 128 85.3333 128H341.333C354.133 128 362.667 136.533 362.667 149.333C362.667 162.133 354.133 170.667 341.333 170.667Z" fill="#00355E"/>
</svg>
