<svg width="512" height="512" viewBox="0 0 512 512" fill="none" xmlns="http://www.w3.org/2000/svg">
<path d="M341.333 384H85.3333C72.5333 384 64 375.467 64 362.667C64 349.867 72.5333 341.333 85.3333 341.333H341.333C354.133 341.333 362.667 349.867 362.667 362.667C362.667 375.467 354.133 384 341.333 384Z" fill="#00355E"/>
<path d="M277.333 277.333H85.3333C72.5333 277.333 64 268.8 64 256C64 243.2 72.5333 234.667 85.3333 234.667H277.333C290.133 234.667 298.667 243.2 298.667 256C298.667 268.8 290.133 277.333 277.333 277.333Z" fill="#00355E"/>
<path d="M213.333 170.667H85.3333C72.5333 170.667 64 162.133 64 149.333C64 136.533 72.5333 128 85.3333 128H213.333C226.133 128 234.667 136.533 234.667 149.333C234.667 162.133 226.133 170.667 213.333 170.667Z" fill="#00355E"/>
<path d="M383.999 298.667C371.199 298.667 362.666 290.134 362.666 277.334V106.667C362.666 93.8668 371.199 85.3335 383.999 85.3335C396.799 85.3335 405.333 93.8668 405.333 106.667V277.334C405.333 290.134 396.799 298.667 383.999 298.667Z" fill="#00355E"/>
<path d="M447.999 192C441.599 192 437.333 189.867 433.066 185.6L383.999 136.533L334.933 185.6C326.399 194.133 313.599 194.133 305.066 185.6C296.533 177.067 296.533 164.267 305.066 155.733L369.066 91.7335C377.599 83.2002 390.399 83.2002 398.933 91.7335L462.933 155.733C471.466 164.267 471.466 177.067 462.933 185.6C458.666 189.867 454.399 192 447.999 192Z" fill="#00355E"/>
</svg>
