<!DOCTYPE svg PUBLIC "-//W3C//DTD SVG 1.1//EN" "http://www.w3.org/Graphics/SVG/1.1/DTD/svg11.dtd">
<!-- Uploaded to: SVG Repo, www.svgrepo.com, Transformed by: SVG Repo Mixer Tools -->
<svg fill="#212121" width="800px" height="800px" viewBox="0 0 24 24" id="maximize-size" data-name="Flat Color" xmlns="http://www.w3.org/2000/svg" class="icon flat-color">
<g id="SVGRepo_bgCarrier" stroke-width="0"/>
<g id="SVGRepo_tracerCarrier" stroke-linecap="round" stroke-linejoin="round"/>
<g id="SVGRepo_iconCarrier">
<path id="secondary" d="M9.71,8.29a1,1,0,0,1,0,1.42,1,1,0,0,1-1.42,0L4,5.41V8A1,1,0,0,1,2,8V4A2,2,0,0,1,4,2H8A1,1,0,0,1,8,4H5.41ZM21,15a1,1,0,0,0-1,1v2.59l-4.29-4.3a1,1,0,0,0-1.42,1.42L18.59,20H16a1,1,0,0,0,0,2h4a2,2,0,0,0,2-2V16A1,1,0,0,0,21,15Z" style="fill: #63CECC;"/>
<path id="primary" d="M9.71,14.29a1,1,0,0,1,0,1.42L5.41,20H8a1,1,0,0,1,0,2H4a2,2,0,0,1-2-2V16a1,1,0,0,1,2,0v2.59l4.29-4.3A1,1,0,0,1,9.71,14.29ZM20,2H16a1,1,0,0,0,0,2h2.59l-4.3,4.29a1,1,0,0,0,0,1.42,1,1,0,0,0,1.42,0L20,5.41V8a1,1,0,0,0,2,0V4A2,2,0,0,0,20,2Z" style="fill: #63CECC212121;"/>
</g>
</svg>