<svg width="300" height="26" viewBox="0 0 300 26" fill="none" xmlns="http://www.w3.org/2000/svg">
<g clip-path="url(#clip0_160_5)">
<path d="M298.792 15.0115C296.456 13.8092 294.546 12.0308 280.712 9.76154C275.979 9.0065 271.257 8.18906 266.522 7.46522C231.167 2.87674 228.091 3.0473 202.007 1.10874C188.035 0.28922 174.028 0.2289 160.037 9.9815e-05C150.171 -0.0227802 140.304 0.32458 130.441 0.5201C77.3273 2.8185 95.8097 1.59754 58.8026 4.8153C42.8569 6.93066 26.9493 9.36218 11.0163 11.5836C8.64043 12.0849 6.22858 12.451 3.88443 13.0854C1.29064 13.7967 1.19332 13.7676 0.823077 14.1004C-0.867332 15.3027 0.192612 18.2895 2.66793 17.7404C9.85904 15.7707 9.49727 15.9579 40.3393 11.5711C41.2406 12.503 41.8816 12.2742 44.2363 12.218C47.0269 12.1515 49.8174 12.1078 52.6059 11.9851C63.9267 11.1926 75.218 9.9841 86.5325 9.08346C90.4274 8.81306 94.3181 8.4345 98.2131 8.10586C103.123 7.86458 108.036 7.62954 112.949 7.39866C138.396 6.94938 131.029 6.74762 162.592 7.0825C167.547 7.28842 162.925 7.04506 189.19 8.5177C209.63 10.3647 231.698 14.3292 251.691 18.1107C260.338 19.7559 276.375 22.9363 284.761 25.7609C285.567 25.9793 286.513 25.7047 286.985 25.0163C287.655 24.2425 287.547 22.9987 286.82 22.2852C286.132 21.6363 285.097 21.5697 284.243 21.2286C280.458 20.0118 274.894 18.7139 270.772 17.7841L276.307 18.4663C281.177 19.1174 286.098 19.2817 290.977 19.8703C293.262 20.07 296.357 20.2468 298.242 18.9572C298.72 18.6369 299.27 18.3852 299.556 17.8611C300.14 16.9063 299.795 15.5606 298.796 15.0156L298.792 15.0115ZM195.783 4.94426C203.746 5.23546 228.362 7.20106 237.385 8.05178C247.107 9.19786 256.826 10.346 266.53 11.6273C271.661 12.6195 282.214 13.959 288.051 15.4004C285.54 15.1612 283.022 14.9907 280.509 14.7639C252.273 11.4567 224.063 7.89578 195.783 4.94426Z" fill="#15AAA6"/>
</g>
<defs>
<clipPath id="clip0_160_5">
<rect width="300" height="26" fill="white"/>
</clipPath>
</defs>
</svg>
